/* XPM */
static char * close_xpm[] = {
"20 18 3 1",
" 	c None",
".	c #FFFFFF",
"#	c #000000",
"....................",
".##################.",
".#................#.",
".#..#..........#..#.",
".#...#........#...#.",
".#....#......#....#.",
".#.....#....#.....#.",
".#......#..#......#.",
".#........#.......#.",
".#.......#........#.",
".#......#..#......#.",
".#.....#....#.....#.",
".#....#......#....#.",
".#...#........#...#.",
".#..#..........#..#.",
".#................#.",
".##################.",
"...................."};
