/* XPM */
static char * square_xpm[] = {
"20 18 3 1",
" 	c None",
".	c #FFFFFF",
"#	c #000000",
"....................",
".##################.",
".#................#.",
".#................#.",
".#................#.",
".#................#.",
".#................#.",
".#................#.",
".#.##############.#.",
".#................#.",
".#................#.",
".#................#.",
".#................#.",
".#................#.",
".#................#.",
".#................#.",
".##################.",
"...................."};
